<svg width="305" height="335" viewBox="0 0 305 335" fill="none" xmlns="http://www.w3.org/2000/svg">
<g clip-path="url(#clip0_644_412)">
<path d="M211.391 67.9754C190.307 64.6106 166.297 62.8151 141.291 62.8151C118.407 62.8151 96.3598 64.3166 76.6279 67.1477C76.6326 66.8447 76.637 66.5417 76.6505 66.2387C77.1736 48.6503 84.5557 31.9642 97.219 19.7468C109.882 7.52942 126.822 0.749963 144.418 0.85746C162.014 0.964957 178.87 7.95088 191.383 20.3221C203.896 32.6933 211.074 49.4683 211.382 67.0618C211.387 67.3694 211.391 67.6724 211.391 67.9754Z" fill="#538BD8"/>
<g opacity="0.1">
<path d="M152.847 0.832208C143.488 -0.431872 133.969 0.284572 124.905 2.9351C115.841 5.58564 107.435 10.1111 100.232 16.2182C93.0287 22.3253 87.1892 29.8778 83.0918 38.3862C78.9944 46.8945 76.7305 56.1689 76.4468 65.6082C76.4332 65.9112 76.4287 66.2142 76.4243 66.5172C82.2864 65.6761 88.357 64.9553 94.5892 64.3535C95.3514 48.628 101.595 33.6657 112.236 22.0627C122.878 10.4597 137.246 2.94845 152.847 0.832208Z" fill="white"/>
</g>
<path d="M240.869 73.321C231.163 70.69 221.319 68.6004 211.382 67.0618C195.094 64.5379 178.674 62.9599 162.204 62.3358C155.343 62.0554 148.355 61.9106 141.291 61.9106C135.692 61.9106 130.138 62.0011 124.662 62.182C108.596 62.6567 92.568 64.0109 76.6502 66.2387C64.8671 67.8612 53.1983 70.2267 41.7135 73.321C14.9355 80.7245 0.1875 90.6469 0.1875 101.257C0.1875 111.867 14.9355 121.789 41.7135 129.193C60.5455 134.403 83.7642 137.953 109.064 139.581C119.506 140.259 130.301 140.603 141.291 140.603C152.317 140.603 163.149 140.255 173.623 139.576C196.647 138.089 217.948 135.009 235.776 130.531C235.871 130.504 235.962 130.482 236.057 130.459C237.26 130.161 238.445 129.848 239.616 129.536C240.037 129.419 240.453 129.306 240.869 129.193C240.892 129.183 240.916 129.176 240.941 129.17C241.339 129.062 241.733 128.948 242.126 128.84C242.913 128.614 243.691 128.392 244.455 128.162C244.491 128.152 244.523 128.143 244.555 128.134C245.219 127.935 245.871 127.736 246.517 127.537C247.047 127.37 247.571 127.207 248.091 127.04C248.471 126.918 248.847 126.796 249.217 126.674C249.489 126.583 249.756 126.497 250.018 126.407C250.375 126.289 250.733 126.167 251.085 126.045C251.235 125.995 251.384 125.945 251.528 125.891C251.868 125.778 252.198 125.661 252.528 125.543C252.885 125.416 253.243 125.285 253.595 125.159C253.889 125.055 254.183 124.946 254.473 124.837C254.717 124.742 254.957 124.652 255.201 124.562C255.865 124.313 256.517 124.055 257.159 123.802C257.48 123.671 257.801 123.544 258.118 123.413C258.43 123.286 258.746 123.155 259.054 123.024C259.56 122.811 260.058 122.599 260.546 122.386C260.782 122.278 261.021 122.174 261.252 122.074C261.428 121.993 261.6 121.916 261.777 121.835C261.903 121.78 262.03 121.721 262.152 121.663C262.609 121.455 263.061 121.242 263.504 121.029C265.205 120.215 266.792 119.383 268.266 118.533C277.515 113.237 282.395 107.362 282.395 101.257C282.395 90.6469 267.647 80.7245 240.869 73.321ZM240.625 128.324C221.77 133.539 198.488 137.089 173.121 138.704C162.805 139.359 152.141 139.699 141.291 139.699C130.478 139.699 119.85 139.364 109.566 138.708C84.1577 137.098 60.8394 133.548 41.9577 128.324C15.6048 121.034 1.09201 111.424 1.09201 101.257C1.09348 100.359 1.20592 99.4638 1.42679 98.5931C3.73311 89.4213 17.9204 80.8375 41.9577 74.1894C53.3557 71.1192 64.9351 68.7673 76.6277 67.1478C92.6413 64.9074 108.766 63.5485 124.929 63.0775C130.32 62.9011 135.774 62.8136 141.291 62.8152C148.261 62.8152 155.153 62.9553 161.928 63.2267C178.494 63.8452 195.01 65.4308 211.391 67.9754C221.242 69.5071 231.002 71.5816 240.625 74.1894C264.658 80.8375 278.84 89.4168 281.151 98.584C281.376 99.4573 281.49 100.355 281.49 101.257C281.49 111.424 266.978 121.034 240.625 128.324Z" fill="#3F3D56"/>
<path d="M282.137 101.668C282.137 107.71 277.158 113.427 268.266 118.533C266.788 119.383 265.196 120.215 263.504 121.029C263.061 121.242 262.609 121.454 262.152 121.662C262.03 121.721 261.903 121.78 261.777 121.834C261.6 121.916 261.429 121.993 261.252 122.074C261.022 122.173 260.782 122.278 260.547 122.386C260.058 122.599 259.561 122.811 259.054 123.024C258.747 123.155 258.43 123.286 258.118 123.413C257.801 123.544 257.48 123.67 257.159 123.802C256.517 124.055 255.866 124.313 255.201 124.561C254.957 124.652 254.717 124.742 254.473 124.837C254.183 124.946 253.889 125.054 253.595 125.158C253.243 125.285 252.885 125.416 252.528 125.543C252.198 125.66 251.868 125.778 251.529 125.891C251.384 125.945 251.235 125.995 251.085 126.045C250.733 126.167 250.375 126.289 250.018 126.407C249.756 126.497 249.489 126.583 249.218 126.673C248.847 126.796 248.471 126.918 248.091 127.04C247.571 127.207 247.047 127.37 246.518 127.537C245.871 127.736 245.22 127.935 244.555 128.134C244.523 128.143 244.491 128.152 244.455 128.161C243.691 128.392 242.913 128.614 242.126 128.84C241.733 128.948 241.339 129.061 240.941 129.17C240.917 129.175 240.892 129.183 240.869 129.192C240.453 129.306 240.037 129.419 239.616 129.536C238.449 129.844 237.26 130.156 236.057 130.459C235.962 130.481 235.871 130.504 235.777 130.531C218.432 134.864 197.154 138.021 173.605 139.545C163.289 140.209 152.534 140.562 141.486 140.562C130.338 140.562 119.493 140.205 109.095 139.527C47.0277 135.479 0.834473 120.066 0.834473 101.668C0.83936 100.549 1.01 99.4362 1.34083 98.3668C1.36799 98.4436 1.39515 98.516 1.42695 98.5929C7.88043 115.543 53.6806 129.242 113.107 132.584C122.211 133.1 131.64 133.367 141.291 133.367C150.983 133.367 160.449 133.095 169.589 132.58C228.966 129.224 274.72 115.521 281.151 98.5838C281.26 98.3125 281.355 98.0411 281.436 97.7698C281.895 99.0186 282.132 100.338 282.137 101.668Z" fill="#3F3D56"/>
<path d="M41.6459 96.8003C34.1191 96.8003 26.1196 95.181 26.1196 92.1797C26.1196 89.1784 34.1191 87.5591 41.6459 87.5591C49.1726 87.5591 57.1721 89.1784 57.1721 92.1797C57.1721 95.181 49.1726 96.8003 41.6459 96.8003ZM41.6459 88.4636C33.029 88.4636 27.0241 90.4221 27.0241 92.1797C27.0241 93.9373 33.0291 95.8958 41.6459 95.8958C50.2627 95.8958 56.2676 93.9373 56.2676 92.1797C56.2676 90.4221 50.2627 88.4636 41.6459 88.4636Z" fill="#3F3D56"/>
<path d="M73.7557 118.056C66.229 118.056 58.2295 116.437 58.2295 113.436C58.2295 110.435 66.229 108.815 73.7557 108.815C81.2825 108.815 89.282 110.435 89.282 113.436C89.282 116.437 81.2825 118.056 73.7557 118.056ZM73.7557 109.72C65.1389 109.72 59.134 111.678 59.134 113.436C59.134 115.193 65.1389 117.152 73.7557 117.152C82.3724 117.152 88.3775 115.193 88.3775 113.436C88.3775 111.678 82.3725 109.72 73.7557 109.72Z" fill="#3F3D56"/>
<path d="M240.638 96.8003C233.111 96.8003 225.112 95.181 225.112 92.1797C225.112 89.1784 233.111 87.5591 240.638 87.5591C248.165 87.5591 256.164 89.1784 256.164 92.1797C256.164 95.181 248.165 96.8003 240.638 96.8003ZM240.638 88.4636C232.021 88.4636 226.016 90.4221 226.016 92.1797C226.016 93.9373 232.021 95.8958 240.638 95.8958C249.255 95.8958 255.26 93.9373 255.26 92.1797C255.26 90.4221 249.255 88.4636 240.638 88.4636Z" fill="#3F3D56"/>
<path d="M208.528 118.056C201.001 118.056 193.002 116.437 193.002 113.436C193.002 110.435 201.001 108.815 208.528 108.815C216.055 108.815 224.054 110.435 224.054 113.436C224.054 116.437 216.055 118.056 208.528 118.056ZM208.528 109.72C199.911 109.72 193.906 111.678 193.906 113.436C193.906 115.193 199.911 117.152 208.528 117.152C217.145 117.152 223.15 115.193 223.15 113.436C223.15 111.678 217.145 109.72 208.528 109.72Z" fill="#3F3D56"/>
<path d="M141.142 128.006C133.615 128.006 125.616 126.387 125.616 123.385C125.616 120.384 133.615 118.765 141.142 118.765C148.669 118.765 156.668 120.384 156.668 123.385C156.668 126.387 148.669 128.006 141.142 128.006ZM141.142 119.669C132.525 119.669 126.52 121.628 126.52 123.385C126.52 125.143 132.525 127.101 141.142 127.101C149.759 127.101 155.764 125.143 155.764 123.385C155.764 121.628 149.759 119.669 141.142 119.669Z" fill="#3F3D56"/>
<path d="M152.588 223.059C163.081 223.059 171.588 214.553 171.588 204.059C171.588 193.566 163.081 185.059 152.588 185.059C142.094 185.059 133.587 193.566 133.587 204.059C133.587 214.553 142.094 223.059 152.588 223.059Z" fill="#2F2E41"/>
<path d="M145.362 216.542L136.115 221.173L138.7 226.335L147.947 221.704L145.362 216.542Z" fill="#2F2E41"/>
<path d="M139.919 225.811C140.468 224.979 139.114 223.119 136.896 221.657C134.678 220.195 132.436 219.683 131.887 220.515C131.339 221.347 132.692 223.206 134.91 224.669C137.128 226.131 139.371 226.642 139.919 225.811Z" fill="#2F2E41"/>
<path d="M159.813 216.542L157.229 221.704L166.476 226.334L169.06 221.173L159.813 216.542Z" fill="#2F2E41"/>
<path d="M170.265 224.669C172.483 223.206 173.837 221.347 173.288 220.515C172.74 219.683 170.497 220.194 168.28 221.657C166.062 223.119 164.708 224.979 165.257 225.811C165.805 226.642 168.048 226.131 170.265 224.669Z" fill="#2F2E41"/>
<path d="M151.257 205.905C154.844 205.905 157.751 202.998 157.751 199.411C157.751 195.825 154.844 192.918 151.257 192.918C147.671 192.918 144.764 195.825 144.764 199.411C144.764 202.998 147.671 205.905 151.257 205.905Z" fill="white"/>
<path d="M152.837 198.167C153.679 197.325 153.674 195.955 152.827 195.107C151.979 194.26 150.609 194.255 149.767 195.097C148.926 195.938 148.93 197.308 149.778 198.156C150.626 199.004 151.996 199.008 152.837 198.167Z" fill="#3F3D56"/>
<path d="M167.577 183.389C167.862 176.355 161.8 170.397 154.036 170.081C146.272 169.766 139.746 175.212 139.46 182.247C139.174 189.281 144.571 190.879 152.336 191.194C160.1 191.51 167.291 190.423 167.577 183.389Z" fill="#538BD8"/>
<path d="M178.529 214.008C179.779 212.935 178.021 208.838 174.604 204.857C171.186 200.876 167.402 198.519 166.153 199.592C164.903 200.664 166.66 204.761 170.078 208.742C173.495 212.724 177.279 215.081 178.529 214.008Z" fill="#2F2E41"/>
<path d="M135.151 208.743C138.569 204.762 140.326 200.665 139.076 199.592C137.826 198.519 134.043 200.876 130.625 204.857C127.208 208.838 125.45 212.935 126.7 214.008C127.95 215.081 131.733 212.724 135.151 208.743Z" fill="#2F2E41"/>
<path d="M157.806 211.547C158.012 212.676 157.76 213.841 157.107 214.786C156.454 215.73 155.452 216.376 154.322 216.581C153.193 216.787 152.028 216.535 151.084 215.882C150.139 215.229 149.493 214.227 149.288 213.098L149.286 213.089C148.86 210.736 150.679 209.904 153.032 209.478C155.385 209.052 157.38 209.194 157.806 211.547Z" fill="white"/>
<path d="M120.488 224.27C120.248 224.27 120.018 224.175 119.848 224.005C119.678 223.836 119.583 223.606 119.583 223.366V170C119.583 169.76 119.678 169.53 119.848 169.36C120.018 169.191 120.248 169.095 120.488 169.095C120.727 169.095 120.957 169.191 121.127 169.36C121.297 169.53 121.392 169.76 121.392 170V223.366C121.392 223.606 121.297 223.836 121.127 224.005C120.957 224.175 120.727 224.27 120.488 224.27Z" fill="#CCCCCC"/>
<path d="M106.92 272.209C106.68 272.209 106.45 272.114 106.281 271.944C106.111 271.775 106.016 271.545 106.016 271.305V232.411C106.016 232.171 106.111 231.941 106.281 231.771C106.45 231.602 106.68 231.506 106.92 231.506C107.16 231.506 107.39 231.602 107.56 231.771C107.729 231.941 107.825 232.171 107.825 232.411V271.305C107.825 271.545 107.729 271.775 107.56 271.944C107.39 272.114 107.16 272.209 106.92 272.209Z" fill="#CCCCCC"/>
<path d="M141.744 240.099C141.504 240.099 141.274 240.004 141.104 239.834C140.935 239.665 140.839 239.435 140.839 239.195V185.829C140.839 185.589 140.935 185.359 141.104 185.189C141.274 185.019 141.504 184.924 141.744 184.924C141.984 184.924 142.214 185.019 142.383 185.189C142.553 185.359 142.648 185.589 142.648 185.829V239.195C142.648 239.435 142.553 239.665 142.383 239.834C142.214 240.004 141.984 240.099 141.744 240.099Z" fill="#CCCCCC"/>
<path d="M128.628 278.541C128.388 278.541 128.158 278.446 127.989 278.276C127.819 278.106 127.724 277.876 127.724 277.636V255.928C127.724 255.688 127.819 255.458 127.989 255.289C128.158 255.119 128.388 255.024 128.628 255.024C128.868 255.024 129.098 255.119 129.268 255.289C129.437 255.458 129.533 255.688 129.533 255.928V277.636C129.533 277.876 129.437 278.106 129.268 278.276C129.098 278.446 128.868 278.541 128.628 278.541Z" fill="#CCCCCC"/>
<path d="M147.171 167.286C146.931 167.286 146.701 167.191 146.531 167.021C146.361 166.852 146.266 166.621 146.266 166.382V144.673C146.266 144.433 146.361 144.203 146.531 144.034C146.701 143.864 146.931 143.769 147.171 143.769C147.411 143.769 147.641 143.864 147.81 144.034C147.98 144.203 148.075 144.433 148.075 144.673V166.382C148.075 166.621 147.98 166.852 147.81 167.021C147.641 167.191 147.411 167.286 147.171 167.286Z" fill="#CCCCCC"/>
<path d="M101.945 176.783C101.705 176.783 101.475 176.688 101.305 176.518C101.136 176.349 101.041 176.119 101.041 175.879V154.171C101.041 153.931 101.136 153.701 101.305 153.531C101.475 153.361 101.705 153.266 101.945 153.266C102.185 153.266 102.415 153.361 102.585 153.531C102.754 153.701 102.85 153.931 102.85 154.171V175.879C102.85 176.119 102.754 176.349 102.585 176.518C102.415 176.688 102.185 176.783 101.945 176.783Z" fill="#CCCCCC"/>
<path d="M180.637 179.045C180.398 179.045 180.167 178.949 179.998 178.78C179.828 178.61 179.733 178.38 179.733 178.14V156.432C179.733 156.192 179.828 155.962 179.998 155.792C180.167 155.623 180.398 155.527 180.637 155.527C180.877 155.527 181.107 155.623 181.277 155.792C181.447 155.962 181.542 156.192 181.542 156.432V178.14C181.542 178.38 181.447 178.61 181.277 178.78C181.107 178.949 180.877 179.045 180.637 179.045Z" fill="#CCCCCC"/>
<path d="M178.829 246.883C178.589 246.883 178.359 246.788 178.189 246.618C178.02 246.449 177.924 246.218 177.924 245.979V219.748C177.924 219.508 178.02 219.278 178.189 219.108C178.359 218.939 178.589 218.843 178.829 218.843C179.069 218.843 179.299 218.939 179.468 219.108C179.638 219.278 179.733 219.508 179.733 219.748V245.979C179.733 246.218 179.638 246.449 179.468 246.618C179.299 246.788 179.069 246.883 178.829 246.883Z" fill="#CCCCCC"/>
<path d="M160.738 269.948C160.499 269.948 160.269 269.853 160.099 269.683C159.929 269.514 159.834 269.283 159.834 269.044V230.15C159.834 229.91 159.929 229.68 160.099 229.51C160.269 229.34 160.499 229.245 160.738 229.245C160.978 229.245 161.208 229.34 161.378 229.51C161.548 229.68 161.643 229.91 161.643 230.15V269.044C161.643 269.283 161.548 269.514 161.378 269.683C161.208 269.853 160.978 269.948 160.738 269.948Z" fill="#CCCCCC"/>
<path d="M164.357 203.467C164.117 203.467 163.887 203.371 163.717 203.202C163.547 203.032 163.452 202.802 163.452 202.562V149.196C163.452 148.956 163.547 148.726 163.717 148.556C163.887 148.387 164.117 148.292 164.357 148.292C164.597 148.292 164.827 148.387 164.996 148.556C165.166 148.726 165.261 148.956 165.261 149.196V202.562C165.261 202.802 165.166 203.032 164.996 203.202C164.827 203.371 164.597 203.467 164.357 203.467Z" fill="#CCCCCC"/>
<path d="M275.246 317.027C276.541 315.943 274.791 311.721 271.339 307.597C267.886 303.473 264.037 301.009 262.743 302.093C261.448 303.176 263.198 307.398 266.65 311.522C270.103 315.646 273.952 318.111 275.246 317.027Z" fill="#2F2E41"/>
<path d="M266.756 312.337C270.157 302.132 264.642 291.101 254.437 287.7C244.232 284.298 233.202 289.813 229.8 300.018C226.398 310.223 231.913 321.254 242.119 324.655C252.324 328.057 263.354 322.542 266.756 312.337Z" fill="#2F2E41"/>
<path d="M256.522 321.464H250.604V332.065H256.522V321.464Z" fill="#2F2E41"/>
<path d="M244.688 321.464H238.771V332.065H244.688V321.464Z" fill="#2F2E41"/>
<path d="M251.591 334.038C254.314 334.038 256.522 333.21 256.522 332.188C256.522 331.167 254.314 330.339 251.591 330.339C248.868 330.339 246.66 331.167 246.66 332.188C246.66 333.21 248.868 334.038 251.591 334.038Z" fill="#2F2E41"/>
<path d="M239.757 333.791C242.48 333.791 244.688 332.963 244.688 331.942C244.688 330.921 242.48 330.093 239.757 330.093C237.033 330.093 234.826 330.921 234.826 331.942C234.826 332.963 237.033 333.791 239.757 333.791Z" fill="#2F2E41"/>
<path d="M242.162 281.694C243.901 274.69 251.578 270.568 259.309 272.488C267.04 274.407 271.898 281.641 270.158 288.645C268.419 295.65 262.649 295.672 254.918 293.752C247.187 291.833 240.423 288.698 242.162 281.694Z" fill="#CCCCCC"/>
<path d="M235.139 301.313C235.863 299.787 232.51 296.682 227.65 294.377C222.79 292.073 218.264 291.441 217.541 292.966C216.817 294.492 220.17 297.597 225.03 299.902C229.889 302.207 234.415 302.839 235.139 301.313Z" fill="#2F2E41"/>
<path d="M245.366 308.561C248.953 308.561 251.86 305.654 251.86 302.068C251.86 298.481 248.953 295.574 245.366 295.574C241.78 295.574 238.873 298.481 238.873 302.068C238.873 305.654 241.78 308.561 245.366 308.561Z" fill="white"/>
<path d="M242.697 301.905C243.893 301.905 244.862 300.935 244.862 299.74C244.862 298.545 243.893 297.575 242.697 297.575C241.502 297.575 240.533 298.545 240.533 299.74C240.533 300.935 241.502 301.905 242.697 301.905Z" fill="#3F3D56"/>
<path d="M245.31 318.339C246.809 318.339 248.024 317.125 248.024 315.626C248.024 314.127 246.809 312.912 245.31 312.912C243.812 312.912 242.597 314.127 242.597 315.626C242.597 317.125 243.812 318.339 245.31 318.339Z" fill="white"/>
<path d="M303.892 334.168H197.159C197.039 334.168 196.924 334.121 196.84 334.036C196.755 333.951 196.707 333.836 196.707 333.716C196.707 333.596 196.755 333.481 196.84 333.396C196.924 333.312 197.039 333.264 197.159 333.264H303.892C304.012 333.264 304.127 333.312 304.211 333.396C304.296 333.481 304.344 333.596 304.344 333.716C304.344 333.836 304.296 333.951 304.211 334.036C304.127 334.121 304.012 334.168 303.892 334.168Z" fill="#3F3D56"/>
</g>
<defs>
<clipPath id="clip0_644_412">
<rect width="304.156" height="333.943" fill="white" transform="translate(0.1875 0.225586)"/>
</clipPath>
</defs>
</svg>
